<?xml version="1.0" encoding="UTF-8"?>
<svg viewBox="0 0 267 267" version="1.1" xmlns="http://www.w3.org/2000/svg" xmlns:xlink="http://www.w3.org/1999/xlink">
    <!-- Generator: Sketch 57.1 (83088) - https://sketch.com -->
    <title>skw-logo</title>
    <desc>Created with Sketch.</desc>
    <defs>
        <polygon id="path-1" points="0 0.589844 24 0.589844 24 89 0 89"></polygon>
        <polygon id="path-3" points="0.253906 0 160.726562 0 160.726562 46.40625 0.253906 46.40625"></polygon>
        <polygon id="path-5" points="0.851562 0.0625 25.601562 0.0625 25.601562 24.8125 0.851562 24.8125"></polygon>
    </defs>
    <g id="Page-1" stroke="none" stroke-width="1" fill="none" fill-rule="evenodd">
        <g id="skw-logo">
            <path d="M133.5,0.683594 C131.328125,0.683594 129.152344,0.738281 126.984375,0.84375 C124.8125,0.953125 122.644531,1.109375 120.480469,1.324219 C118.320312,1.539062 116.160156,1.804688 114.011719,2.121094 C111.863281,2.441406 109.722656,2.8125 107.589844,3.238281 C105.457031,3.660156 103.335938,4.136719 101.226562,4.664062 C99.121094,5.191406 97.027344,5.773438 94.945312,6.402344 C92.867188,7.035156 90.800781,7.714844 88.753906,8.449219 C86.710938,9.179688 84.683594,9.960938 82.671875,10.792969 C80.664062,11.625 78.679688,12.507812 76.714844,13.4375 C74.75,14.367188 72.808594,15.34375 70.890625,16.367188 C68.972656,17.390625 67.082031,18.464844 65.21875,19.582031 C63.355469,20.699219 61.519531,21.859375 59.710938,23.066406 C57.90625,24.277344 56.128906,25.527344 54.382812,26.820312 C52.636719,28.117188 50.921875,29.453125 49.242188,30.832031 C47.5625,32.210938 45.917969,33.628906 44.308594,35.089844 C42.695312,36.550781 41.121094,38.046875 39.585938,39.585938 C38.046875,41.121094 36.550781,42.695312 35.089844,44.308594 C33.628906,45.917969 32.210938,47.5625 30.832031,49.242188 C29.453125,50.921875 28.117188,52.636719 26.820312,54.382812 C25.527344,56.128906 24.277344,57.90625 23.066406,59.710938 C21.859375,61.519531 20.699219,63.355469 19.582031,65.21875 C18.464844,67.082031 17.390625,68.972656 16.367188,70.890625 C15.34375,72.808594 14.367188,74.75 13.4375,76.714844 C12.507812,78.679688 11.625,80.664062 10.792969,82.671875 C9.960938,84.683594 9.179688,86.710938 8.449219,88.753906 C7.714844,90.800781 7.035156,92.867188 6.402344,94.945312 C5.773438,97.027344 5.191406,99.121094 4.664062,101.226562 C4.136719,103.335938 3.660156,105.457031 3.238281,107.589844 C2.8125,109.722656 2.441406,111.863281 2.121094,114.011719 C1.804688,116.160156 1.539062,118.320312 1.324219,120.480469 C1.109375,122.644531 0.953125,124.8125 0.84375,126.984375 C0.738281,129.152344 0.683594,131.328125 0.683594,133.5 C0.683594,135.671875 0.738281,137.847656 0.84375,140.015625 C0.953125,142.1875 1.109375,144.355469 1.324219,146.519531 C1.539062,148.679688 1.804688,150.839844 2.121094,152.988281 C2.441406,155.136719 2.8125,157.277344 3.238281,159.410156 C3.660156,161.542969 4.136719,163.664062 4.664062,165.769531 C5.191406,167.878906 5.773438,169.972656 6.402344,172.054688 C7.035156,174.132812 7.714844,176.199219 8.449219,178.242188 C9.179688,180.289062 9.960938,182.316406 10.792969,184.328125 C11.625,186.335938 12.507812,188.320312 13.4375,190.285156 C14.367188,192.25 15.34375,194.191406 16.367188,196.109375 C17.390625,198.027344 18.464844,199.917969 19.582031,201.78125 C20.699219,203.644531 21.859375,205.480469 23.066406,207.289062 C24.277344,209.09375 25.527344,210.871094 26.820312,212.617188 C28.117188,214.363281 29.453125,216.078125 30.832031,217.757812 C32.210938,219.4375 33.628906,221.082031 35.089844,222.691406 C36.550781,224.304688 38.046875,225.878906 39.585938,227.414062 C41.121094,228.953125 42.695312,230.449219 44.308594,231.910156 C45.917969,233.371094 47.5625,234.789062 49.242188,236.167969 C50.921875,237.546875 52.636719,238.882812 54.382812,240.179688 C56.128906,241.472656 57.90625,242.722656 59.710938,243.933594 C61.519531,245.140625 63.355469,246.300781 65.21875,247.417969 C67.082031,248.535156 68.972656,249.609375 70.890625,250.632812 C72.808594,251.65625 74.75,252.632812 76.714844,253.5625 C78.679688,254.492188 80.664062,255.375 82.671875,256.207031 C84.683594,257.039062 86.710938,257.820312 88.753906,258.550781 C90.800781,259.285156 92.867188,259.964844 94.945312,260.597656 C97.027344,261.226562 99.121094,261.808594 101.226562,262.335938 C103.335938,262.863281 105.457031,263.339844 107.589844,263.761719 C109.722656,264.1875 111.863281,264.558594 114.011719,264.878906 C116.160156,265.195312 118.320312,265.460938 120.480469,265.675781 C122.644531,265.890625 124.8125,266.046875 126.984375,266.15625 C129.152344,266.261719 131.328125,266.316406 133.5,266.316406 C135.671875,266.316406 137.847656,266.261719 140.015625,266.15625 C142.1875,266.046875 144.355469,265.890625 146.519531,265.675781 C148.679688,265.460938 150.839844,265.195312 152.988281,264.878906 C155.136719,264.558594 157.277344,264.1875 159.410156,263.761719 C161.542969,263.339844 163.664062,262.863281 165.769531,262.335938 C167.878906,261.808594 169.972656,261.226562 172.054688,260.597656 C174.132812,259.964844 176.199219,259.285156 178.242188,258.550781 C180.289062,257.820312 182.316406,257.035156 184.328125,256.207031 C186.335938,255.375 188.320312,254.492188 190.285156,253.5625 C192.25,252.632812 194.191406,251.65625 196.109375,250.632812 C198.027344,249.609375 199.917969,248.535156 201.78125,247.417969 C203.644531,246.300781 205.480469,245.140625 207.289062,243.933594 C209.09375,242.722656 210.871094,241.472656 212.617188,240.179688 C214.363281,238.882812 216.078125,237.546875 217.757812,236.167969 C219.4375,234.789062 221.082031,233.371094 222.691406,231.910156 C224.304688,230.449219 225.878906,228.953125 227.414062,227.414062 C228.953125,225.878906 230.449219,224.304688 231.910156,222.691406 C233.371094,221.082031 234.789062,219.4375 236.167969,217.757812 C237.546875,216.078125 238.882812,214.363281 240.179688,212.617188 C241.472656,210.871094 242.722656,209.09375 243.933594,207.289062 C245.140625,205.480469 246.300781,203.644531 247.417969,201.78125 C248.535156,199.917969 249.609375,198.027344 250.632812,196.109375 C251.65625,194.191406 252.632812,192.25 253.5625,190.285156 C254.492188,188.320312 255.375,186.335938 256.207031,184.328125 C257.039062,182.316406 257.820312,180.289062 258.550781,178.242188 C259.285156,176.199219 259.964844,174.132812 260.597656,172.054688 C261.226562,169.972656 261.808594,167.878906 262.335938,165.769531 C262.863281,163.664062 263.339844,161.542969 263.761719,159.410156 C264.1875,157.277344 264.558594,155.136719 264.878906,152.988281 C265.195312,150.839844 265.460938,148.679688 265.675781,146.519531 C265.890625,144.355469 266.046875,142.1875 266.15625,140.015625 C266.261719,137.847656 266.316406,135.671875 266.316406,133.5 C266.316406,131.328125 266.261719,129.152344 266.15625,126.984375 C266.046875,124.8125 265.890625,122.644531 265.675781,120.480469 C265.460938,118.320312 265.195312,116.160156 264.878906,114.011719 C264.558594,111.863281 264.1875,109.722656 263.761719,107.589844 C263.339844,105.457031 262.863281,103.335938 262.335938,101.226562 C261.808594,99.121094 261.226562,97.027344 260.597656,94.945312 C259.964844,92.867188 259.285156,90.800781 258.550781,88.753906 C257.820312,86.710938 257.035156,84.683594 256.207031,82.671875 C255.375,80.664062 254.492188,78.679688 253.5625,76.714844 C252.632812,74.75 251.65625,72.808594 250.632812,70.890625 C249.609375,68.972656 248.535156,67.082031 247.417969,65.21875 C246.300781,63.355469 245.140625,61.519531 243.933594,59.710938 C242.722656,57.90625 241.472656,56.128906 240.179688,54.382812 C238.882812,52.636719 237.546875,50.921875 236.167969,49.242188 C234.789062,47.5625 233.371094,45.917969 231.910156,44.308594 C230.449219,42.695312 228.953125,41.121094 227.414062,39.585938 C225.878906,38.046875 224.304688,36.550781 222.691406,35.089844 C221.082031,33.628906 219.4375,32.210938 217.757812,30.832031 C216.078125,29.453125 214.363281,28.117188 212.617188,26.820312 C210.871094,25.527344 209.09375,24.277344 207.289062,23.066406 C205.480469,21.859375 203.644531,20.699219 201.78125,19.582031 C199.917969,18.464844 198.027344,17.390625 196.109375,16.367188 C194.191406,15.34375 192.25,14.367188 190.285156,13.4375 C188.320312,12.507812 186.335938,11.625 184.328125,10.792969 C182.316406,9.960938 180.289062,9.179688 178.242188,8.449219 C176.199219,7.714844 174.132812,7.035156 172.054688,6.402344 C169.972656,5.773438 167.878906,5.191406 165.769531,4.664062 C163.664062,4.136719 161.542969,3.660156 159.410156,3.238281 C157.277344,2.8125 155.136719,2.441406 152.988281,2.121094 C150.839844,1.804688 148.679688,1.539062 146.519531,1.324219 C144.355469,1.109375 142.1875,0.953125 140.015625,0.84375 C137.847656,0.738281 135.671875,0.683594 133.5,0.683594 Z" id="Path" fill="#2B3252" fill-rule="nonzero"></path>
            <path d="M87.53125,87 C72.667969,82.550781 65.1875,87.773438 61.839844,96.378906 L63.179688,98.871094 L66.714844,96.964844 L68.625,100.5 L72.160156,98.59375 L74.066406,102.136719 L77.605469,100.222656 L79.511719,103.765625 L83.046875,101.855469 L84.957031,105.394531 L88.492188,103.484375 L90.398438,107.027344 L93.9375,105.117188 L95.839844,108.65625 L99.382812,106.75 L101.289062,110.289062 L104.828125,108.378906 L106.734375,111.917969 L110.269531,110.015625 L112.175781,113.550781 L115.714844,111.644531 L117.625,115.179688 L121.15625,113.273438 L123.070312,116.8125 L126.601562,114.90625 L128.511719,118.441406 L132.046875,116.535156 L133.957031,120.074219 L137.488281,118.167969 L139.398438,121.703125 L142.9375,119.796875 L144.84375,123.335938 L148.378906,121.425781 L150.289062,124.964844 L153.824219,123.058594 L155.734375,126.597656 L159.269531,124.691406 L161.179688,128.230469 L164.714844,126.324219 L166.621094,129.859375 L170.160156,127.953125 L172.183594,131.714844 L172.183594,131.71875 L176.183594,132.914062 L181.496094,115.15625 L87.53125,87" id="Path" fill="#EF5455" fill-rule="nonzero"></path>
            <polyline id="Path" fill="#FAD744" fill-rule="nonzero" points="129.214844 103.472656 99.125 94.453125 99.667969 92.640625 129.757812 101.652344 129.214844 103.472656"></polyline>
            <path d="M211.394531,138.53125 L145.347656,56.542969 C134.640625,43.683594 115.546875,41.945312 102.699219,52.664062 L191.925781,159.835938 L211.394531,138.53125" id="Path" fill="#EF5455" fill-rule="nonzero"></path>
            <polyline id="Path" fill="#FAD744" fill-rule="nonzero" points="169.378906 96.472656 149.269531 72.320312 152.179688 69.890625 172.289062 94.046875 169.378906 96.472656"></polyline>
            <path d="M75.007812,159.53125 L80.480469,159.867188 C83.3125,160.042969 84.789062,162.351562 83.78125,165.023438 L81.101562,172.835938 C80.089844,175.503906 82.113281,175.480469 85.070312,175.1875 L92.1875,174.492188 C95.140625,174.203125 96.566406,176.113281 95.371094,178.761719 L91.5,188.273438 C90.304688,190.921875 92.152344,191.035156 95.066406,190.941406 L100.734375,190.753906 C103.652344,190.660156 104.914062,192.707031 103.554688,195.324219 L100.59375,202.097656 C99.238281,204.707031 100.765625,205.09375 103.449219,205.363281 C106.136719,205.632812 109.996094,207.082031 109.609375,208.074219 C109.214844,209.074219 104.628906,209.242188 101.832031,208.964844 L97.972656,208.578125 C95.171875,208.296875 94.007812,205.949219 95.367188,203.335938 L97.554688,199.125 C98.914062,196.511719 99.617188,194.832031 96.703125,194.929688 L89.371094,194.738281 C86.457031,194.832031 85.0625,192.761719 86.261719,190.113281 L89.519531,182.890625 C90.722656,180.25 89.292969,178.335938 86.339844,178.628906 L79.570312,179.292969 C76.613281,179.582031 75.042969,177.652344 76.054688,174.984375 L78.546875,168.40625 C79.5625,165.738281 78.082031,163.429688 75.246094,163.25 L73.738281,163.15625 C70.902344,162.980469 68.890625,162.023438 69.242188,161.023438 C69.589844,160.019531 72.175781,159.34375 75.007812,159.53125" id="Path" fill="#EF5455" fill-rule="nonzero"></path>
            <path d="M183.851562,184.535156 L177.871094,207.59375 C176.578125,212.570312 168.632812,226.625 163.65625,225.332031 L174.847656,182.195312 L183.851562,184.535156" id="Path" fill="#EF5455" fill-rule="nonzero"></path>
            <path d="M189.171875,131.863281 C185.832031,131 182.683594,131.992188 182.144531,134.085938 L172.511719,171.222656 C171.964844,173.3125 174.230469,175.710938 177.566406,176.582031 C180.910156,177.445312 184.050781,176.453125 184.597656,174.363281 L194.226562,137.226562 C194.769531,135.136719 192.507812,132.730469 189.171875,131.863281" id="Path" fill="#EF5455" fill-rule="nonzero"></path>
            <path d="M206.789062,154.515625 L178.164062,183.699219 C174.820312,180.339844 172.054688,174.835938 175.410156,171.484375 L201.375,145.722656 L206.789062,154.515625" id="Path" fill="#EF5455" fill-rule="nonzero"></path>
            <path d="M184.035156,185.285156 C180.300781,189.011719 174.304688,189.074219 170.476562,185.492188 L143.90625,212.011719 C140.28125,208.371094 148.371094,194.398438 152.011719,190.773438 L168.054688,174.757812 C168.535156,173.542969 169.265625,172.40625 170.242188,171.429688 C174.058594,167.613281 180.246094,167.625 184.0625,171.449219 C187.867188,175.273438 187.859375,181.46875 184.035156,185.285156" id="Path" fill="#EF5455" fill-rule="nonzero"></path>
            <path d="M178.785156,171.695312 C175.285156,170.789062 171.710938,172.890625 170.800781,176.394531 C169.894531,179.898438 171.996094,183.472656 175.492188,184.382812 C178.992188,185.289062 182.5625,183.1875 183.472656,179.6875 C184.382812,176.183594 182.277344,172.601562 178.785156,171.695312" id="Path" fill="#FAD744" fill-rule="nonzero"></path>
            <g id="Clipped" transform="translate(185.000000, 40.000000)">
                <mask id="mask-2" fill="white">
                    <use xlink:href="#path-1"></use>
                </mask>
                <g id="Path"></g>
                <polyline id="Path" fill="#EF5455" fill-rule="nonzero" mask="url(#mask-2)" points="0.226562 88.53125 5.730469 0.589844 17.855469 0.589844 23.363281 88.53125 0.226562 88.53125"></polyline>
            </g>
            <polyline id="Path" fill="#FAD744" fill-rule="nonzero" points="201.113281 96.957031 199.996094 68.878906 202.671875 68.773438 203.789062 96.851562 201.113281 96.957031"></polyline>
            <g id="Clipped" transform="translate(53.000000, 116.000000)">
                <mask id="mask-4" fill="white">
                    <use xlink:href="#path-3"></use>
                </mask>
                <g id="Path"></g>
                <path d="M28.816406,46.242188 C13.042969,46.242188 0.253906,35.898438 0.253906,23.140625 C0.253906,10.382812 13.042969,0.039062 28.816406,0.039062 L132.164062,0.039062 C147.9375,0.039062 160.726562,10.382812 160.726562,23.140625 C160.726562,35.898438 147.9375,46.242188 132.164062,46.242188 L28.816406,46.242188" id="Path" fill="#FAD744" fill-rule="nonzero" mask="url(#mask-4)"></path>
            </g>
            <g id="Clipped" transform="translate(170.000000, 128.000000)">
                <mask id="mask-6" fill="white">
                    <use xlink:href="#path-5"></use>
                </mask>
                <g id="Path"></g>
                <path d="M8.273438,19.863281 C6.90625,19.863281 5.8125,20.96875 5.8125,22.335938 C5.8125,23.703125 6.90625,24.8125 8.273438,24.8125 C9.640625,24.8125 10.75,23.703125 10.75,22.335938 C10.75,20.96875 9.640625,19.863281 8.273438,19.863281 Z M0.851562,0.0625 L0.851562,2.539062 L3.324219,2.539062 L7.773438,11.925781 L6.101562,14.957031 C5.910156,15.316406 5.800781,15.71875 5.800781,16.148438 C5.800781,17.515625 6.90625,18.625 8.273438,18.625 L23.125,18.625 L23.125,16.148438 L8.800781,16.148438 C8.628906,16.148438 8.492188,16.015625 8.492188,15.839844 C8.492188,15.785156 8.503906,15.734375 8.527344,15.691406 L9.636719,13.675781 L18.855469,13.675781 C19.785156,13.675781 20.59375,13.160156 21.019531,12.402344 L25.445312,4.367188 C25.542969,4.195312 25.601562,3.992188 25.601562,3.773438 C25.601562,3.089844 25.042969,2.539062 24.363281,2.539062 L6.066406,2.539062 L4.890625,0.0625 L0.851562,0.0625 Z M20.648438,19.863281 C19.28125,19.863281 18.1875,20.96875 18.1875,22.335938 C18.1875,23.703125 19.28125,24.8125 20.648438,24.8125 C22.015625,24.8125 23.125,23.703125 23.125,22.335938 C23.125,20.96875 22.015625,19.863281 20.648438,19.863281 Z" id="Shape" fill="#2B3252" fill-rule="nonzero" mask="url(#mask-6)"></path>
            </g>
        </g>
    </g>
</svg>
